{
    "asset" : {
        "generator" : "Khronos glTF Blender I/O v3.4.50",
        "version" : "2.0"
    },
    "scene" : 0,
    "scenes" : [
        {
            "name" : "Scene",
            "nodes" : [
                0
            ]
        }
    ],
    "nodes" : [
        {
            "mesh" : 0,
            "name" : "Plane.001",
            "rotation" : [
                0.7071068286895752,
                0,
                0,
                0.7071068286895752
            ],
            "translation" : [
                0.019291911274194717,
                2.5149314403533936,
                0.019338298588991165
            ]
        }
    ],
    "meshes" : [
        {
            "name" : "Plane.001",
            "primitives" : [
                {
                    "attributes" : {
                        "POSITION" : 0,
                        "TEXCOORD_0" : 1,
                        "NORMAL" : 2
                    },
                    "indices" : 3
                }
            ]
        }
    ],
    "accessors" : [
        {
            "bufferView" : 0,
            "componentType" : 5126,
            "count" : 4092,
            "max" : [
                1.8961800336837769,
                0.4918007254600525,
                0.36288976669311523
            ],
            "min" : [
                -1.9133546352386475,
                -0.4423784911632538,
                -1.5806457996368408
            ],
            "type" : "VEC3"
        },
        {
            "bufferView" : 1,
            "componentType" : 5126,
            "count" : 4092,
            "type" : "VEC2"
        },
        {
            "bufferView" : 2,
            "componentType" : 5126,
            "count" : 4092,
            "type" : "VEC3"
        },
        {
            "bufferView" : 3,
            "componentType" : 5123,
            "count" : 21168,
            "type" : "SCALAR"
        }
    ],
    "bufferViews" : [
        {
            "buffer" : 0,
            "byteLength" : 49104,
            "byteOffset" : 0,
            "target" : 34962
        },
        {
            "buffer" : 0,
            "byteLength" : 32736,
            "byteOffset" : 49104,
            "target" : 34962
        },
        {
            "buffer" : 0,
            "byteLength" : 49104,
            "byteOffset" : 81840,
            "target" : 34962
        },
        {
            "buffer" : 0,
            "byteLength" : 42336,
            "byteOffset" : 130944,
            "target" : 34963
        }
    ],
    "buffers" : [
        {
            "byteLength" : 173280,
            "uri" : "data:application/octet-stream;base64,"
        }
    ]
}
