{
    "asset" : {
        "generator" : "Khronos glTF Blender I/O v3.4.50",
        "version" : "2.0"
    },
    "scene" : 0,
    "scenes" : [
        {
            "name" : "Scene",
            "nodes" : [
                0
            ]
        }
    ],
    "nodes" : [
        {
            "mesh" : 0,
            "name" : "sweater.json",
            "translation" : [
                0,
                19.60918426513672,
                0
            ]
        }
    ],
    "materials" : [
        {
            "name" : "Material_1.002",
            "pbrMetallicRoughness" : {
                "metallicFactor" : 0.5,
                "roughnessFactor" : 0.5
            }
        }
    ],
    "meshes" : [
        {
            "name" : "Mesh_1.002",
            "primitives" : [
                {
                    "attributes" : {
                        "COLOR_0" : 0,
                        "POSITION" : 1,
                        "TEXCOORD_0" : 2,
                        "TEXCOORD_1" : 3,
                        "NORMAL" : 4
                    },
                    "indices" : 5,
                    "material" : 0
                }
            ]
        }
    ],
    "accessors" : [
        {
            "bufferView" : 0,
            "componentType" : 5123,
            "count" : 7310,
            "normalized" : true,
            "type" : "VEC4"
        },
        {
            "bufferView" : 1,
            "componentType" : 5126,
            "count" : 7310,
            "max" : [
                190.3544464111328,
                354.2650146484375,
                65.05660247802734
            ],
            "min" : [
                -187.6322479248047,
                1.3095703125,
                -81.02870178222656
            ],
            "type" : "VEC3"
        },
        {
            "bufferView" : 2,
            "componentType" : 5126,
            "count" : 7310,
            "type" : "VEC2"
        },
        {
            "bufferView" : 3,
            "componentType" : 5126,
            "count" : 7310,
            "type" : "VEC2"
        },
        {
            "bufferView" : 4,
            "componentType" : 5126,
            "count" : 7310,
            "type" : "VEC3"
        },
        {
            "bufferView" : 5,
            "componentType" : 5123,
            "count" : 40320,
            "type" : "SCALAR"
        }
    ],
    "bufferViews" : [
        {
            "buffer" : 0,
            "byteLength" : 58480,
            "byteOffset" : 0,
            "target" : 34962
        },
        {
            "buffer" : 0,
            "byteLength" : 87720,
            "byteOffset" : 58480,
            "target" : 34962
        },
        {
            "buffer" : 0,
            "byteLength" : 58480,
            "byteOffset" : 146200,
            "target" : 34962
        },
        {
            "buffer" : 0,
            "byteLength" : 58480,
            "byteOffset" : 204680,
            "target" : 34962
        },
        {
            "buffer" : 0,
            "byteLength" : 87720,
            "byteOffset" : 263160,
            "target" : 34962
        },
        {
            "buffer" : 0,
            "byteLength" : 80640,
            "byteOffset" : 350880,
            "target" : 34963
        }
    ],
    "buffers" : [
        {
            "byteLength" : 431520,
            "uri" : "data:application/octet-stream;base64,"
        }
    ]
}
